<svg width="3750" height="1100" xmlns="http://www.w3.org/2000/svg">
 <defs>
  <clipPath id="clip-0">
   <path id="svg_1" d="m12.05469,13.44141l3728.10547,0l0,2223.80859l-3728.10547,0l0,-2223.80859zm0,0" clip-rule="nonzero"/>
  </clipPath>
 </defs>
 <g>
  <title>Layer 1</title>
  <path id="svg_5" d="m793.07161,73.35156l0.01172,0c-0.17187,0.14844 3.14844,4.01953 1.35938,4.8086c-0.78125,0.33984 -31.7461,1.19922 -35.44532,1.19922c-7.15234,0 -1.0039,2.08203 -4.08984,4.80078c-0.45703,0.39843 -20.25,-3.60157 -28.62891,-3.60157c-5.91406,0 -34.08203,0.41016 -34.08203,-6c-15.28125,2.70313 -4.11328,6.01954 -9.54687,10.80079c-0.21485,0.1914 -24.14063,-0.75782 -25.90235,-1.19922c-3.82031,-0.96094 -7.61718,-2.64063 -10.90625,-3.60157c-6.04297,-1.77734 3.67969,7.33985 -5.45312,6c-0.96094,-0.13671 -27.26953,-7.1289 -27.26953,-4.79687c0,1.44922 4.6875,3.07812 2.72656,4.79687c-2.37109,2.08985 -13.35938,-1.51953 -16.35938,-2.39843c-2.91796,-0.85938 -0.44531,1.58984 -1.36328,2.39843c-0.82031,0.73047 -13.21484,1.17188 -13.63281,1.20313c-15.64844,0.97656 -27.70312,-0.40234 -42.26562,-3.60156c-18.36719,-4.03907 2.9375,13.26172 -9.54297,9.60156c-14.07422,-4.13281 -30.71485,-4.0625 -44.98828,-7.20313c-8.88672,-1.95703 -4.61329,0.46094 -6.82032,2.40235c-1.51953,1.33984 -10.71093,-1 -12.26562,-1.19922c-3.75,-0.47266 -15.78125,-6.51172 -19.08985,-3.60156c-1.36328,1.19922 1.36329,6 0,7.19922c-2.04296,1.80078 -10.22656,-1.80079 -12.26953,0c-0.68359,0.60156 -0.67968,1.80078 -1.36328,2.40234c-0.64062,0.56641 -1.8164,0 -2.72656,0c-11.95313,0 -26.3125,1.48828 -38.17188,0c-2.09375,-0.26172 -11.67968,-4.12109 -13.63671,-2.40234c-1.94532,1.71093 4.72265,6.33203 2.72656,7.21093c-8.02344,3.53125 -50.12891,-2.76172 -55.89453,-3.60937c-0.3125,-0.03906 -6.94532,-2.28906 -8.1836,-1.19922c-1.13281,1 1.13672,5 0,6c-1.46093,1.28906 -47.74218,1.20703 -51.80468,1.20703c-1.5,0 -9.03125,-1.66016 -9.54297,-1.20703c-2.50782,2.20703 3.86718,8.59766 1.36328,10.80859c-2.19531,1.92969 -25.46094,-1.87109 -27.26953,-2.39843c-5.08985,-1.5 -2.21875,2.39843 -8.17969,2.39843c-7.50391,0 -45.42578,-2.26953 -53.16797,0c-3.01562,0.88282 -0.07812,2.46485 -1.36719,3.60157c-2.98437,2.6289 -31.58203,-1.19922 -38.17187,-1.19922c-25.96094,4.23047 7.625,8.0664 3.32812,9.96093c-5.61328,2.46875 -33.76953,-2.67968 -36.8125,0c-2.24218,1.97266 2.97657,5.13282 1.89063,7.61329c-3.32813,0.41406 -6.65235,0.83203 -9.97656,1.25c-2.22266,-0.16797 -4.69532,-0.36329 -5.54688,-0.45704c-0.30859,-0.03515 -24.34766,-3.77343 -24.54297,-3.60546c-1.38672,1.22656 1.50391,2.34375 -1.35937,3.60546c-3.83203,1.6836 -21.09766,0 -25.90625,0c-3.58985,0 0.26953,3.35938 -1.36328,4.79688c-0.04297,0.03906 -29.54688,0.3125 -32.71875,0c-13.07422,-1.27734 -3.36329,-1.19922 -8.17969,-1.19922c-0.91016,0 -2.73047,0.80078 -2.73047,0c0,-0.47656 10.78906,6.10938 8.18359,8.40625c-0.96484,0.84766 -2.72656,0 -4.08984,0c-7.02344,0 -30.67578,0.44922 -38.17578,-1.19922c-0.98438,-0.21875 -1.81641,-0.80469 -2.72656,-1.20312c-3.63672,-0.40235 -7.25782,-0.9336 -10.90625,-1.19922c-1.98047,-0.14453 -13.64454,-1.27735 -16.78125,-2.02344c2.60546,1.53125 6.05468,5.57031 5.875,5.625c-3.82032,1.12109 -15.10938,-2.30469 -17.72266,0c-1.19141,1.04688 1.36328,1.92969 1.36328,2.39844c0,0.27734 -23.03516,-0.94531 -21.81641,1.20312c0.75782,1.33594 5.45313,2.625 5.45313,3.60157c0,1.59765 -3.63281,0 -5.45313,0l-21.8125,0c-8.00781,0 3.48829,6.52734 1.36329,8.40234c-2.4961,2.19531 -16.04688,-0.81641 -19.08594,-1.19922c-3.1836,-0.40234 -7.27344,-3.20312 -9.54297,-1.20312c-4.55078,4.00781 -15.83984,-0.45704 -20.45313,3.60156c-1.78515,1.57422 -0.80078,3.35547 -4.08984,4.80078c-8.61328,3.79297 -22.11719,1.57422 -32.13281,1.30469l0,5.73828c2.73437,1.57422 5.90234,2.85547 4.86719,3.76562c-0.65235,0.57422 -2.4961,0.60938 -4.86719,0.38282l0,921.10937l3037.27344,0l0,-735.26172c-10.64844,-6.86719 -21.98829,-14.67578 -24.69922,-14.67578c-0.25,0 0.32031,4.66406 0,4.80469c-2.95703,1.30078 -6.36719,-1.56641 -9.53907,-2.40235c-11.53125,-3.04687 -9.14843,1.19922 -9.55078,1.19922c-6.02734,0 -16.84765,-7.74609 -23.16797,-9.60156c-3.35937,-0.98437 0.42969,3.79297 -2.73046,2.40234c-9.73047,-4.28125 -17.96094,-8.45703 -28.62891,-10.80859c-4.78125,-1.05078 1.60937,6.37109 -1.36328,4.80469c-6.21875,-3.28516 -11.72656,-5.90625 -19.08985,-7.20313c-8.25781,-1.45312 4.13282,4.98828 -12.26953,-1.19922c-3.3789,-1.27734 -13.86718,-8.19921 -16.35937,-6.0039c-2.16016,1.89844 -5.35156,-2.60547 -8.17969,-3.60156c-4.41016,-1.55079 -9.12891,-2.28125 -13.62891,-3.60157c-3.65234,-1.07031 -5.83203,-1.95703 -7.05078,-2.58593c0.23047,1.53125 -1.14062,4.45703 -1.14062,6.1875c0,1.60156 1.28906,3.67187 0,4.80078c-1.28125,1.13281 -3.75781,0.59765 -5.44922,0c-3.03906,-1.07032 -5.42969,-3.22657 -8.17969,-4.80078c-19.26953,-11.05469 -41.58984,-25.41797 -62.53906,-34.64063c-6.63281,-2.92187 2.10937,6.00391 -2.72266,6.00391c-3.5,0 -21.39062,-3.78907 -24.53906,-2.40235c-0.91016,0.40235 2.07813,1.76953 1.35938,2.40235c-0.01954,0.01172 -7.91797,-4.6836 -10.91016,-6.00391c-3.02734,-1.33203 -0.53906,2.88281 -1.35938,3.60156c-2.91015,2.5625 -8.32812,-0.15625 -12.26953,-1.19922c-3.41015,-0.90234 -18.33984,-7.3125 -24.53906,-8.40234c-5.17187,-0.91016 -11.3125,1.26953 -16.35937,0c-26.07032,-6.55859 -35.45313,-9.09375 -38.25,-10.05859c0.02734,0.5625 -0.13282,0.96484 -1.29297,0.45312c-10.67969,-4.69922 -34.11719,-19.58594 -44.9375,-19.58594c-0.98047,0 7.05859,11.79297 5.44922,13.20313c-0.64063,0.56641 -1.83985,0.19531 -2.71875,0c-4.61329,-1.01172 -9.09375,-2.42188 -13.64063,-3.60156c-3.17187,-0.82032 -6.3125,-1.76563 -9.54297,-2.39844c-5.46875,-1.07031 -0.72656,2.08594 -4.08984,1.19922c-6.87891,-1.82031 -13.53906,-4.26172 -20.44922,-6.00391c-2.46875,-0.61719 -2.96094,1.91406 -4.08984,1.20313c-9.89063,-6.22657 -18.82032,-10.19141 -29.98829,-14.40625c-4.71093,-1.77735 4.30079,7.58593 5.44922,9.60547c0.19922,0.35546 -0.92187,0.07812 -1.37109,0c-3.66797,-0.64844 -7.23047,-1.75391 -10.89844,-2.40235c-2.76172,-0.48437 -0.0625,-1.02734 -4.08984,-2.40234c-6.33203,-2.15235 -12.88281,-3.82813 -19.08985,-6.22266c-5.63281,-2.16406 -10.76171,-5.24219 -16.37109,-7.42187c-6.60156,-2.56641 4.25,7.61718 0,7.20312c-18.05859,-1.76953 -32.71094,-9.8164 -48.64062,-16.82812c-3.5,-1.53907 1.85937,8.0664 -4.08985,6.0039c-7.01953,-2.43359 -13.78906,-5.41015 -20.67969,-8.11328c-7.30859,-2.60937 -14.55078,-5.35547 -21.91796,-7.83203c-3.39063,-1.14062 0.72656,3.41406 -2.72266,2.40234c-11.5,-3.37109 -2.01953,-1.96875 -15,-3.60156c-2.62891,-0.32812 -2.62109,1.75391 -4.08984,1.19922c-2.71875,-1.02344 -12.10938,-6.67187 -16.35938,-4.80078c-2.51953,1.11328 1.46094,2.66016 -6.82031,1.20312c-9.8086,-1.73046 -20.64844,-4.63281 -29.98828,-6.0039c-8.96094,-1.31641 -29.97266,-8.42578 -31.36328,-7.20313c-0.11719,0.10938 1.83203,6.08594 1.37109,6.00391c-25.77734,-4.54297 -49.55078,-16.04297 -74.52734,-23.12891c-3.72266,-1.05468 3.55859,6 -1.36329,6c-5.57031,0 -17.14843,-2.05468 -21.82031,0c-3.89844,1.71875 5.19141,2.06641 -9.53906,1.20313c-20.35938,-1.19531 -51.59766,-13.11328 -68.16797,-20.41016c-1.22266,-0.53515 12.67969,10.94922 8.17969,9.60156c-7.10938,-2.125 -56.51172,-21.96875 -68.17188,-21.96875c-2.26953,0 5.69141,3.38672 4.08985,4.80079c-3.27735,2.88671 -9.16016,-1.34766 -13.64063,-2.39844c-11.16015,-2.6211 -6.02734,-2.40235 -12.26953,-2.40235c-3.64844,0 1.40234,4.01172 -4.08984,2.40235c-6.16016,-1.8125 -33.71875,-14.40625 -38.16797,-14.40625c-1.03125,0 6.82031,8.77344 6.82031,9.60156c0,2.08594 -29.0625,-2.39844 -35.45312,-2.39844c-10.17969,0 -24.66797,-6.19531 -34.07813,-8.40625c-0.01953,-0.00781 -0.03906,-0.00781 -0.07031,-0.00781c4.32031,2.95703 9.60937,9.5 5.51953,8.41016c-21.37109,-5.70313 -42.39844,-12.36328 -63.75,-18.13282c-4.73047,-1.28125 -9.52734,-2.35156 -14.37109,-3.27734c-0.88672,-0.16797 -2.07813,-0.56641 -2.72657,0c-1.42187,1.25 5.50782,1.15234 4.08985,2.40234c-0.96094,0.84766 -2.74219,0.19922 -4.08985,0c-6.85156,-1.0039 -13.67187,-2.24218 -20.45312,-3.60156c-0.63672,-0.1289 -10.91016,-3.14062 -10.91016,-2.39844c0,1.09375 14.5,10.61329 13.64063,10.80469c-12.9375,2.84375 -26.51953,-8.40625 -39.53907,-8.40625c-0.44921,0 -1.35937,-0.39844 -1.35937,0c0,0.52344 7.46875,3.91406 5.44922,4.80078c-6.48047,2.85547 -54.53125,-10.4375 -54.53125,-14.40625c-3.47656,1.6211 9.92187,10.48828 7.05078,13.01563c-1.35938,1.19531 -17.28906,-7.30078 -28.64063,-12.00391c-13.17968,-5.46484 -3.78906,0.48828 -16.35937,-1.20312c-13.64844,-1.83594 -27.14844,-4.54297 -40.80078,-6.41016c-32.19922,-4.38281 -9.89844,2.94141 -43.70703,-8.97266c-3.38282,-1.1875 4.83984,4.80079 -1.3711,4.80079l-17.71875,0c-11.76172,0 -17.83203,2.37109 -29.99218,-1.19922c-2.19922,-0.64063 -7.85938,-3.01953 -6.82032,-1.19922c0.85938,1.51953 5.44922,2.39844 4.08985,3.59765c-1.86719,1.65235 -25.26953,-7.86718 -33.41797,-9.14843c2.73047,1.44922 13.32812,8.82812 11.60937,10.35156c-1.53906,1.34766 -22.14062,-2.99219 -24.55078,-3.60156c-6.50781,-1.64063 -14.39062,-1.3086 -21.80859,-2.39844c-4.3711,-0.64063 -9.03125,-0.67188 -13.0625,-2.26172c-0.0586,0.48828 -0.1875,1.01172 -0.57031,1.05859c-6.72657,0.99219 -13.70704,0.85157 -20.44922,0c-10.51953,-1.32031 -22.11719,-7.9375 -31.35938,-12c-2.66797,-1.17968 -0.6914,1.8125 -1.35937,2.40235c-1.92969,1.69922 -5.48828,0.35937 -8.17969,0c-26.33984,-3.57031 -3.64063,-0.67188 -13.64063,-3.60156c-2.85156,-0.83985 0.23829,2.40234 -2.71875,2.40234c-3.83984,0 -11.67187,-1.47266 -15,0c-0.10937,0.04687 -0.1914,4.55859 0,4.76953c-7.12109,0 -23.38281,-0.0625 -28.63281,-2.37109c-4.32812,-1.91016 -31.30859,-8.44922 -34.07812,-6c-1.58203,1.3789 9.44922,11.39062 5.44922,10.80078c-12.16797,-1.78906 -2.01954,-0.26172 -16.35938,-6c-6.67969,-2.67969 -7.26953,0.4375 -9.53906,0c-8.30078,-1.6211 -16.57031,-3.66016 -24.55078,-6c-3.39844,-1 0.75,3.16015 -2.71875,2.39844c-13.61328,-3 -26.72266,-8.41016 -40.90235,-8.41016c-11.3789,-1.62109 5.89063,9.22266 2.72266,12.01172c-0.96094,0.84765 -2.72266,0 -4.08984,0c-4.69141,0 -32.36329,-0.32031 -32.72266,0c-1.62891,1.42969 3.71094,2.32812 -2.71875,1.19922c-4.71875,-0.83203 -11.94922,-4.87891 -15,-6c-4.12891,-1.51953 -9.32031,-3.53907 -13.62891,-4.8086c-3.70312,-1.08203 2.5586,2.39844 -1.37109,2.39844l-17.71875,0c-0.91016,0 -2.73047,-0.80078 -2.73047,0c0,1.46094 3.20703,3.07813 -1.35937,2.41016c-6.20313,-0.91016 -10.48047,-2.3086 -16.36329,-3.60938c-3.57812,-0.78125 -8.88671,0.42969 -12.26953,0c-4.25781,-0.53125 -9.16797,-1.74219 -13.6289,-2.40234c-4.62891,-0.67969 -2.35938,0.88281 -4.08985,2.40234c-0.96093,0.83985 -12.44922,0.10938 -13.64062,0c-1.39063,-0.12109 -14.0586,-3.22265 -15,-2.40234c-1.39063,1.23047 1.51172,2.33984 -1.35938,3.60156c-7.28125,3.21094 -17.30859,0.92969 -24.53906,-1.19922c-3.63281,-1.0625 0.45703,0.66797 -1.35937,1.19922c-3.02344,0.89063 -6.46094,0.67969 -9.55079,0c-3.15234,-0.69141 -27.82031,-9.10937 -28.63281,-8.39844zm473.66016,24.14844c0.08203,-0.66016 -0.04688,-1.33984 -0.57031,-1.33984c-0.45704,0 -0.40625,1.01953 0,1.19922c0.18359,0.08203 0.39062,0.07031 0.57031,0.14062zm47.8125,-2.08984c-0.13281,-0.0586 -0.58203,-0.41016 -0.67188,-0.44922c-0.39843,-0.17969 -1.80859,0 -1.35937,0c0.39844,0 1.46875,0.35937 2.03125,0.44922zm390.71875,42.52734c-1.69922,-1.16406 -3.25,-1.87109 -4.01953,-1.19141c-1.01172,0.88282 2.60156,0.875 4.01953,1.19141zm-1784.13281,-0.59766c0.5039,-0.44531 1.35156,-0.18359 2.30468,0.37891c-0.49609,-0.12109 -2.40625,-0.28906 -2.30468,-0.37891zm2519.8125,129.71485c-1.73829,-0.51172 -1.57032,0.51562 -1.42969,1.4414c4.46094,0.58204 15.30859,2.63282 1.42969,-1.4414zm-1.42969,1.4414c-1.62891,-0.21484 -1.57813,-0.03515 -0.00781,0.50782c0.00781,-0.17578 0.03906,-0.3086 0.00781,-0.50782zm205.76172,44c0.75781,0 1.03906,0.42579 1.1289,1.01563c-1.24218,-0.64063 -1.49218,-1.01563 -1.1289,-1.01563zm237.16797,69.97657c-0.01954,0.16797 0.14062,0.85547 0.05078,0.85547c-0.35157,0 -0.1211,-0.46485 -0.05078,-0.85547" fill="rgb(66.601562%, 87.109375%, 52.929688%)" fill-rule="nonzero"/>
  <path id="svg_6" d="m3866.12761,215.10416c-0.67188,-0.73047 -21.10938,7.88281 -23.73047,8.59766c-2.55859,0.69531 -5.41016,0.90625 -7.91016,0c-1.51172,-0.54688 1.87891,-2.32032 -1.1289,-1.23047c-5.99219,2.17187 -14.3125,4.50781 -20.33985,1.23047c-2.38281,-1.29297 0.02735,-2.4336 -1.13281,-3.6875c-0.76953,-0.83594 -11.27734,2.33203 -12.42969,2.45703c-0.98828,0.10937 -10.50781,0.85547 -11.30078,0c-1.4375,-1.5625 0.44141,-3.15235 -3.38672,-2.45703c-3.70312,0.67187 -7.78125,1.91015 -11.30078,2.45703c-2.8125,0.4375 -7.19922,-0.80469 -10.17187,0c-4.87891,1.32812 -8.42969,2.7539 -13.5586,3.68359c-3.78906,0.6875 -1.14062,-0.96484 -1.14062,-2.45312c0,-0.82032 -1.5,0 -2.25781,0l-14.69141,0c-3.25,0 1.94141,-3.57032 -1.12891,-2.45703c-3.57031,1.29296 -7.88281,3.36328 -11.30078,4.91015c-2.51953,1.14844 -8.51953,5.29297 -12.42969,6.14453c-5.33203,1.15625 -0.91015,0.23828 -2.26171,-1.23047c-0.28907,-0.32031 -23.23047,0 -27.1211,0c-1.1289,0 -2.58984,0.8711 -3.38672,0c-2.62109,-2.84765 11.69922,-13.9414 2.25782,-12.28125c-11.75,0 -22.6211,5.53125 -33.89844,8.59766c-2.88281,0.78125 0.55859,-3.48047 -2.26172,-2.45703c-6.60938,2.39453 -13.46875,4.48047 -20.33984,6.14062c-1.89063,0.45704 -2.3711,-2.73437 -7.91016,0c-11.89063,5.875 -3.46875,4.31641 -13.55859,6.14454c-3.32032,0.59765 5.82031,-9.64063 4.51953,-11.0586c-2.30078,-2.49609 -24.67188,4.19531 -28.25,6.14453c-4.35938,2.36328 -17.83203,2.42578 -23.73047,2.42969c0.14844,-0.22266 0.08984,-4.83594 0,-4.88672c-2.75781,-1.5 -9.25781,0 -12.42969,0c-2.46094,0 0.10156,-3.3164 -2.26172,-2.45703c-8.28906,3 10.52344,0.03516 -11.30859,3.68359c-2.23047,0.375 -5.17969,1.73829 -6.78125,0c-0.54688,-0.60156 1.08984,-3.65625 -1.12891,-2.45703c-7.64844,4.16407 -17.26953,10.92969 -25.98828,12.28516c-5.58984,0.86719 -11.37109,1.00781 -16.95312,0c-0.3086,-0.05859 -0.41797,-0.58594 -0.46875,-1.08594c-3.33985,1.62891 -7.19922,1.65625 -10.82813,2.3125c-6.15234,1.11719 -12.67969,0.78125 -18.08203,2.45703c-2,0.6211 -19.07031,5.06641 -20.33984,3.6836c-1.42969,-1.55469 7.35937,-9.10938 9.62109,-10.59375c-6.76172,1.30468 -26.15234,11.05468 -27.69922,9.36718c-1.13281,-1.22656 2.66797,-2.13281 3.39063,-3.68359c0.85937,-1.87109 -3.83204,0.56641 -5.65235,1.22656c-10.07812,3.65235 -15.12109,1.22657 -24.85937,1.22657l-14.69141,0c-5.14844,0 1.67188,-6.12891 -1.12891,-4.91016c-28.03125,12.18359 -9.55078,4.6875 -36.23046,9.17969c-11.32032,1.90234 -22.50782,4.67578 -33.82813,6.55468c-10.41016,1.73047 -2.63281,-4.35937 -13.5625,1.22657c-9.39844,4.8125 -22.60937,13.50781 -23.73047,12.28515c-2.3789,-2.58593 8.72266,-11.66015 5.83985,-13.3125c0,4.0586 -39.82813,17.66016 -45.19922,14.73828c-1.67969,-0.91015 4.51953,-4.3789 4.51953,-4.91406c0,-0.41015 -0.75781,0 -1.12891,0c-10.78906,0 -22.05078,11.51172 -32.76953,8.60156c-0.71875,-0.19531 11.30078,-9.9375 11.30078,-11.05859c0,-0.75391 -8.51172,2.32813 -9.03906,2.45703c-5.62109,1.39063 -11.27344,2.65625 -16.95313,3.6875c-1.11718,0.19922 -2.58984,0.86719 -3.38671,0c-1.1836,-1.28125 4.55859,-1.17969 3.38671,-2.45703c-0.53906,-0.57812 -1.52734,-0.17578 -2.25781,0c-4.01172,0.94531 -8,2.03906 -11.92187,3.34766c-17.6875,5.90234 -35.11719,12.71484 -52.83985,18.55468c-3.3789,1.11719 0.99219,-5.57421 4.58203,-8.60546c-0.01953,0.0039 -0.04296,0.0039 -0.0625,0.00781c-7.79687,2.26172 -19.80859,8.59765 -28.25,8.59765c-5.28906,0 -29.3789,4.58985 -29.3789,2.45704c0,-0.84766 6.51172,-9.82422 5.64844,-9.82422c-3.6875,0 -26.52735,12.88672 -31.63672,14.73828c-4.55078,1.64844 -0.36328,-2.45703 -3.39063,-2.45703c-5.17187,0 -0.92187,-0.22657 -10.17187,2.45703c-3.70703,1.07422 -8.57813,5.41015 -11.30078,2.45703c-1.32813,-1.44922 5.27343,-4.91406 3.39062,-4.91406c-9.66016,0 -50.61719,20.30468 -56.50781,22.48047c-3.73047,1.375 7.78906,-10.37891 6.77734,-9.82813c-13.72656,7.46484 -39.6289,19.66016 -56.5,20.88281c-12.20703,0.88282 -4.67969,0.53125 -7.91015,-1.23047c-3.87891,-2.10156 -13.46875,0 -18.07813,0c-4.08984,0 1.94922,-7.22265 -1.12891,-6.14062c-20.71093,7.25 -40.41015,19.01953 -61.78125,23.66406c-0.3789,0.08203 1.23047,-6.03125 1.12891,-6.14062c-1.14844,-1.25 -18.55859,6.02343 -25.98828,7.36718c-7.74219,1.40235 -16.73047,4.375 -24.85938,6.14454c-6.85937,1.48828 -3.5625,-0.09375 -5.65234,-1.23047c-3.51953,-1.91407 -11.29687,3.86328 -13.55859,4.91406c-1.21875,0.56641 -1.21094,-1.56641 -3.39063,-1.23047c-10.75781,1.67188 -2.89844,0.23438 -12.42969,3.6875c-2.85937,1.03516 0.5586,-3.62891 -2.26171,-2.45703c-6.09766,2.53516 -12.10938,5.33984 -18.15625,8.00781c-5.72266,2.76563 -11.33204,5.8125 -17.15235,8.30469c-4.92969,2.10937 -0.48828,-7.72266 -3.39062,-6.14453c-13.19922,7.17578 -25.34766,15.41015 -40.3086,17.21875c-3.53125,0.42578 5.46875,-9.9961 0,-7.3711c-4.64843,2.23047 -8.91015,5.38282 -13.57031,7.59375c-5.14844,2.44922 -10.57812,4.16407 -15.82031,6.36719c-3.35156,1.40625 -1.10938,1.96094 -3.39844,2.45703c-3.04297,0.66016 -5.99219,1.79297 -9.04297,2.45703c-0.35937,0.08204 -1.28906,0.36719 -1.1289,0c0.94921,-2.0664 8.42968,-11.64453 4.51953,-9.82812c-9.25,4.31641 -16.66016,8.375 -24.85938,14.74219c-0.92969,0.72656 -1.33984,-1.86328 -3.39062,-1.23047c-5.71875,1.78125 -11.23828,4.28125 -16.94922,6.14453c-2.78125,0.90625 1.14062,-2.32422 -3.39063,-1.23047c-2.66797,0.64844 -5.27734,1.61328 -7.91015,2.45703c-3.76953,1.20313 -7.48047,2.64844 -11.30078,3.6836c-0.72657,0.19921 -1.72657,0.58203 -2.25782,0c-1.33203,-1.44141 5.32813,-13.51172 4.51953,-13.51172c-8.96875,0 -28.39843,15.23047 -37.25,20.03906c-0.96093,0.52344 -1.07812,0.11328 -1.07031,-0.46094c-2.32031,0.98828 -10.09765,3.57813 -31.69922,10.28906c-4.1914,1.30079 -9.28125,-0.92968 -13.55859,0c-5.14063,1.11719 -17.51172,7.67579 -20.33984,8.59766c-3.27344,1.06641 -7.76172,3.85156 -10.1836,1.23047c-0.66797,-0.73828 1.39063,-5.05078 -1.11719,-3.6875c-2.48046,1.34766 -9.05078,6.14453 -9.05078,6.14453c-0.58984,-0.64844 1.89063,-2.04687 1.12891,-2.45703c-2.60938,-1.42188 -17.4375,2.45703 -20.33984,2.45703c-4,0 3.24218,-9.13281 -2.25782,-6.14453c-17.36328,9.4375 -35.86328,24.13281 -51.83203,35.44141c-2.28125,1.61328 -4.25781,3.8164 -6.78125,4.91406c-1.39844,0.60547 -3.45703,1.15625 -4.51953,0c-1.07031,-1.16016 0,-3.27735 0,-4.91406c0,-1.76954 -1.12891,-4.76563 -0.9375,-6.33204c-1.01172,0.64454 -2.82031,1.55079 -5.83984,2.64844c-3.73047,1.35156 -7.65235,2.09766 -11.30078,3.6836c-2.35157,1.01953 -5,5.6289 -6.78125,3.6875c-2.07032,-2.2461 -10.75782,4.83203 -13.5586,6.13671c-13.60156,6.33594 -3.33203,-0.25781 -10.17187,1.23047c-6.10938,1.32813 -10.66797,4.00782 -15.82813,7.36719c-2.46094,1.60938 2.83985,-5.98828 -1.12109,-4.91016c-8.85156,2.40235 -15.67969,6.67579 -23.73828,11.05469c-2.6211,1.42578 0.51953,-3.46484 -2.26172,-2.45703c-5.23828,1.89844 -14.19922,9.82422 -19.21094,9.82422c-0.32812,0 1.65234,-4.34375 -7.91016,-1.22656c-2.61718,0.85547 -5.44921,3.78906 -7.91015,2.45703c-0.25781,-0.14453 0.21094,-4.91406 0,-4.91406c-3.57813,0 -25.42969,20.53906 -33.89844,24.5664c-2.44141,1.16016 -7.26172,2.63672 -9.03906,-1.22656c-0.83985,-1.83203 1.75,-6.90234 0,-6.14453c-7.78125,3.38281 -18.17969,9.46094 -24.85938,14.74219c-1.07031,0.83984 -1.62109,2.27343 -2.21093,3.5625c0.05078,-1.90625 1.05078,-6.82813 -1.17969,-6.01954c-9.23047,3.34375 -14,6.73829 -21.47266,13.51172c-0.91797,0.82813 -0.59765,-2.53125 -1.1289,-3.6875c-0.03907,-0.08203 -2.96094,0.89844 -6.78125,2.45703c-3.94922,1.60938 -11.27735,3.26172 -14.6875,4.91407c-2.3125,1.11328 -5.98047,6.28906 -6.78125,3.68359c-0.71875,-2.32812 0,-4.91406 0,-7.36719c0,-0.03906 -0.01954,-0.09765 -0.03125,-0.14453c-0.97657,1.16016 -3.34766,2.94141 -4.48829,3.82813c-1.07812,0.83203 -2.35156,1.39843 -3.30078,2.39062c0.13282,-1.64844 0.38282,-3.3125 -0.08984,-4.84765c-0.14063,-0.4336 -8.76953,7.66796 -10.16797,6.14062c-1.30078,-1.40234 5.03906,-14.98437 5.64844,-15.96484c0.58984,-0.96485 3.32031,-2.45703 2.26172,-2.45703c-8.61328,0 -14.32032,10.43359 -20.99219,16.34375c-15.21875,13.47265 -26.12109,24.99609 -43.66016,33.16406c-3.75781,1.7539 2.26172,-7.3711 2.26172,-7.3711c0.69922,-1.50781 -3.08203,0.60157 -4.51953,1.22657c-7.15234,3.11328 -13.47266,7.32422 -20.33984,11.05859c-2.72266,1.47266 -4.8711,4.91016 -7.91016,4.91016c-2.53125,0 5.78906,-8.23828 3.39063,-7.36719c-4.98047,1.80078 -9.78125,4.14062 -14.69141,6.14062c-3.01172,1.23047 -6.76172,6.16016 -9.03906,3.6836c-0.21094,-0.22656 1.96875,-4.91016 1.1289,-4.91016c-4.4414,0 -12.64843,7.19531 -16.94922,8.59375c-1.83203,0.59766 -3.83984,-0.48828 -5.65234,0c-5.37891,1.46485 -10.28906,3.91406 -15.82031,4.91406c-2.38672,0.4336 -0.17969,-3.8125 -2.25781,-2.45703c-7.73047,5.03907 -11.75,12.83985 -20.33985,17.19922c-5.74219,2.91016 -5.85156,0.28516 -10.17187,1.22656c-2.98047,0.64844 -5.42969,2.33204 -7.91016,3.6836c-1.29687,0.70312 -4.29687,-0.29688 -5.64844,0c-4.6289,1.00781 -4.80078,2.96484 -10.17187,4.91406c-3.66016,1.32813 -11.25,-0.64453 -14.69922,1.23047c-6.23047,3.38672 -6.67969,8.87891 -14.6875,11.05469c-5.91016,1.60547 -1.55078,-7.25 -5.65234,-3.6875c-5.17969,4.50781 -5.62891,8.59375 -12.42969,11.05468c-11.42969,4.14454 -14.03906,-2.88281 -25.98828,4.91407c-14.65235,9.55468 -25.04297,27.8789 -38.42188,39.30468c-11.66797,9.96485 -28.28906,13.14063 -36.16015,28.25c10.66015,12.56641 15.07031,17.32422 23.0625,26.01563c2.1289,2.31641 1.0664,8.10547 3.19921,10.42187c3.30079,3.58594 19.6875,15.01954 22.36719,20.84375c7.28125,15.81641 16.02344,36.54297 25.57031,52.11329c4.19141,6.82031 18.46094,16.58593 22.38282,20.84375c15.54687,16.90234 70.44922,28.85937 88.44922,35.03125c103.25781,35.42187 212.75,43.7539 319.53906,56.91406c51.16015,6.30469 96.89844,24.20312 148.46094,29.46094c70.84765,7.22656 143.12109,3.92187 214.1875,7.76953c25.26171,1.37109 50.30078,6.08203 75.54296,7.82031c49.53907,3.41406 99.20704,4.14062 148.75,7.64453c22.08985,1.5625 43.94922,6.05859 66.03907,7.55469c15.1289,1.02734 30.37109,-1.27344 45.48828,0c15.60156,1.32031 30.76172,6.98437 46.39062,7.76172c83.01172,4.125 168.17188,0 251.38282,0l831.23828,0l0,-774.50391c-2.51953,-0.00391 -5.0586,-0.05078 -7.80078,-0.26172c-0.34766,-0.02734 -10.6211,-0.48828 -11.30079,-1.23047c-0.75781,-0.82422 1.29297,-3.33203 -1.1289,-2.45703c-2.48828,0.90235 -11.60156,4.59766 -13.5586,2.45703c-1.63281,-1.76172 2.25782,-3.42187 2.25782,-4.91015c0,-2.38282 -21.8086,4.76953 -22.59766,4.91015c-7.58203,1.375 0.48828,-7.95312 -4.51953,-6.14062c-2.73047,0.98828 -5.87109,2.70312 -9.04297,3.68359c-1.45703,0.45313 -21.29687,1.42188 -21.48047,1.23047c-4.5,-4.89453 4.76172,-8.28906 -7.91015,-11.05469c0,6.5625 -23.33985,6.14063 -28.25,6.14063c-6.9375,0 -23.34766,4.09765 -23.72657,3.68359c-2.55078,-2.77734 2.53907,-4.91015 -3.39062,-4.91015c-3.0625,0 -28.73047,-0.875 -29.38281,-1.23047c-1.47657,-0.80469 1.27343,-4.76172 1.13281,-4.91016zm-1783.88281,323.14453c0.51171,-0.60547 0.76171,-1.08594 0.03125,-1.08594c-0.34766,0 -0.08985,0.65625 -0.03125,1.08594zm247.70312,-77.42969c1.02734,-0.65625 1.23047,-1.03906 0.9375,-1.03906c-0.62891,0 -0.86719,0.4336 -0.9375,1.03906zm171.48828,-45.53906c1.3086,-0.55469 1.35156,-0.73828 0,-0.51953c-0.03125,0.20703 0,0.34375 0,0.51953zm0,-0.51953c0.10938,-0.94922 0.25,-1.99609 -1.1914,-1.47656c-11.5,4.16797 -2.51954,2.07422 1.1914,1.47656zm608.60156,-133.57812c1.16797,-0.32422 4.16797,-0.3125 3.32813,-1.21875c-0.64063,-0.69532 -1.91797,0.02343 -3.32813,1.21875zm323.85938,-43.51172c0.46875,-0.08985 1.34766,-0.45703 1.67969,-0.45703c0.3789,0 -0.78907,-0.1875 -1.12891,0c-0.07031,0.03906 -0.45312,0.39062 -0.55078,0.45703zm39.62891,2.14062c0.15234,-0.07422 0.32031,-0.0625 0.46875,-0.14453c0.34375,-0.18359 0.38281,-1.22656 0,-1.22656c-0.42969,0 -0.53907,0.6914 -0.46875,1.37109zm-1339.23047,291.5625c0.05078,0.39844 0.25,0.875 -0.03907,0.875c-0.07812,0 0.05079,-0.70312 0.03907,-0.875" fill="rgb(55.271912%, 82.8125%, 37.255859%)" fill-rule="nonzero"/>
  <path stroke="null" id="svg_7" d="m1581.08103,230.10417c-0.13518,0.14063 2.66399,3.78125 1.1491,4.52344c-0.66402,0.32422 -26.78303,1.1289 -29.90427,1.1289c-6.0397,0 -0.84691,1.96094 -3.45126,4.51954c-0.38966,0.3789 -17.08134,-3.39063 -24.15481,-3.39063c-4.99001,0 -28.75517,0.38672 -28.75517,-5.64844c-12.88655,2.54297 -3.47114,5.66797 -8.05161,10.16797c-0.1829,0.17969 -20.36957,-0.71484 -21.85266,-1.1289c-3.2286,-0.90625 -6.43333,-2.48047 -9.20468,-3.39063c-5.09736,-1.66797 3.10533,6.91406 -4.60035,5.64844c-0.8151,-0.12891 -23.00176,-6.70703 -23.00176,-4.51953c0,1.37109 3.94827,2.89843 2.29819,4.51953c-2.00396,1.96875 -11.27623,-1.42969 -13.80106,-2.25781c-2.46518,-0.8086 -0.37773,1.5 -1.14909,2.25781c-0.70377,0.68359 -11.15695,1.10937 -11.50287,1.13281c-13.20463,0.92578 -23.38345,-0.375 -35.66961,-3.39062c-15.4909,-3.80469 2.48506,12.48828 -8.04763,9.03906c-11.86867,-3.88672 -25.91624,-3.82031 -37.95985,-6.78125c-7.49098,-1.83985 -3.88864,0.43359 -5.74945,2.26172c-1.28428,1.26172 -9.03768,-0.94532 -10.35378,-1.12891c-3.16497,-0.44531 -13.31199,-6.13281 -16.10321,-3.39062c-1.14909,1.1289 1.15307,5.64843 0,6.78125c-1.71768,1.69531 -8.62814,-1.69532 -10.3498,0c-0.58051,0.5625 -0.56858,1.69531 -1.14909,2.25781c-0.54075,0.53515 -1.53875,0 -2.30216,0c-10.08738,0 -22.19859,1.40625 -32.20643,0c-1.76936,-0.2461 -9.85277,-3.87891 -11.50286,-2.25781c-1.63815,1.61328 3.98008,5.95312 2.30216,6.78125c-6.76733,3.32421 -42.2938,-2.59766 -47.15657,-3.39454c-0.2664,-0.03906 -5.86475,-2.15234 -6.90251,-1.1289c-0.96619,0.94531 0.95426,4.71094 0,5.65234c-1.23259,1.21094 -40.28986,1.12891 -43.71725,1.12891c-1.2644,0 -7.61424,-1.55469 -8.05161,-1.12891c-2.10733,2.07813 3.26438,8.09375 1.1491,10.16797c-1.85287,1.82031 -21.47891,-1.75781 -23.00574,-2.25781c-4.29419,-1.40625 -1.87274,2.25781 -6.89853,2.25781c-6.33394,0 -38.32565,-2.13672 -44.85839,0c-2.54471,0.83594 -0.06362,2.32422 -1.15307,3.39063c-2.52086,2.47656 -26.64784,-1.12891 -32.20246,-1.12891c-21.90435,3.98437 6.43333,7.59766 2.80713,9.37891c-4.73156,2.32421 -28.48877,-2.52344 -31.06529,0c-1.88467,1.85937 2.5129,4.83203 1.59839,7.16796c-2.81111,0.38672 -5.61028,0.77735 -8.41741,1.17188c-1.87274,-0.15625 -3.9602,-0.33984 -4.68385,-0.42969c-0.25447,-0.03125 -20.54055,-3.55078 -20.70357,-3.39062c-1.16897,1.15234 1.27235,2.20312 -1.14909,3.39062c-3.2286,1.58594 -17.79704,0 -21.85266,0c-3.0298,0 0.22663,3.16406 -1.1491,4.51953c-0.03579,0.03516 -24.93016,0.29297 -27.60608,0c-11.02971,-1.20312 -2.83496,-1.1289 -6.90251,-1.1289c-0.76739,0 -2.30216,0.7539 -2.30216,0c0,-0.45313 9.10129,5.75 6.90251,7.91015c-0.81113,0.79688 -2.29818,0 -3.45126,0c-5.92439,0 -25.88045,0.42188 -32.20642,-1.1289c-0.83101,-0.20703 -1.53477,-0.75391 -2.30216,-1.13282c-3.06558,-0.375 -6.1232,-0.875 -9.2007,-1.1289c-1.66997,-0.13672 -11.51082,-1.19922 -14.1589,-1.90235c2.19879,1.44141 5.10929,5.24219 4.9582,5.29297c-3.22064,1.05469 -12.74738,-2.16797 -14.95411,0c-1.00595,0.98828 1.14909,1.82032 1.14909,2.25782c0,0.26171 -19.43121,-0.89063 -18.40538,1.13281c0.64016,1.25781 4.60433,2.47265 4.60433,3.39062c0,1.50391 -3.06955,0 -4.60433,0l-18.4014,0c-6.75938,0 2.94231,6.14453 1.14909,7.91016c-2.10733,2.06641 -13.53863,-0.76953 -16.10321,-1.12891c-2.68387,-0.3789 -6.13512,-3.01562 -8.0516,-1.13281c-3.83695,3.76953 -13.36368,-0.43359 -17.25629,3.39063c-1.50694,1.48046 -0.67593,3.15625 -3.44728,4.51953c-7.7017,3.78125 -20.23041,1.1289 -28.75914,1.1289c-5.41546,4.13672 7.53073,7.29297 5.74944,9.04297c-2.10335,2.07031 -18.25428,-2.88672 -21.85266,-3.39062c-10.39352,-1.45703 -0.32604,4.54297 -14.95411,5.64843c-3.91248,0.29688 -34.71138,-0.92968 -35.65769,0c-1.25645,1.23829 11.50286,7.33985 11.50286,7.91407c0,1.57812 -20.9302,-0.6836 -23.00573,3.39062c-1.45526,2.85547 -13.25633,2.92188 -16.10322,3.38672c-5.82498,0.95313 -5.70173,1.08203 -8.0516,3.39063c-2.30614,2.26562 -24.14687,-2.26563 -26.45699,0c-1.24054,1.21875 2.06757,4.07031 1.1491,4.51953c-6.71564,3.30078 -30.7989,-2.71875 -39.10497,0c-8.47308,2.77734 18.22247,10.34765 16.10321,12.42968c-3.45126,3.39063 -17.25629,-3.38671 -20.70356,0c-4.03177,3.96485 -27.68163,0.07422 -29.90825,2.26172c-1.99203,1.95703 7.64605,5.64844 3.44728,5.64844c-8.25438,0 -12.56448,3.65625 -20.70356,5.65234c-0.60437,0.15235 -7.35182,0.44532 -8.05161,1.12891c-0.8986,0.88281 3.45126,1.89453 3.45126,2.26172c0,1.12891 -2.30216,0 -3.45126,0c-6.17091,0 -12.18278,1.12891 -18.4014,1.12891c-3.33596,0 -36.81076,0.03125 -36.81076,2.26171c0,1.22266 21.72542,6.78125 14.95413,6.78125c-7.77725,0 -17.69763,0.39063 -25.30391,2.25782c-4.6759,1.14843 7.77327,2.61328 0,4.51953c-5.2087,1.28125 -10.82693,2.35547 -16.10719,3.39062c-0.10339,0.01953 -4.27431,-0.3164 -4.60035,0c-0.86282,0.84766 8.19077,3.34766 4.60035,4.52344c-12.81895,4.19531 -27.37944,3.69141 -40.25804,7.91016c-10.82296,3.54297 -18.04753,8.42968 -27.60609,14.6875c-0.30218,0.19922 -3.33993,1.18359 -6.0715,1.86718c6.39754,0.59375 18.00776,3.17188 19.87653,3.78516c0.38171,0.125 0.80715,0.26172 1.21272,0.39844c-0.75944,0.27344 -1.49899,0.57031 -2.25843,0.84375c-13.04957,0.25 -36.07518,1.32422 -40.36539,5.53906c-3.08149,3.02734 -14.29011,-2.02344 -18.40538,0c-1.51092,0.74219 -3.04172,1.75 -4.60035,2.25781c-0.23062,0.07813 -4.21865,-0.375 -4.60036,0c-2.56458,2.51953 10.3498,3.60157 10.3498,5.65235c0,0.7539 -1.53079,0 -2.29818,0c-1.63815,0 -5.78921,1.16406 -6.90251,2.25781c-2.37771,2.33984 6.46912,7.91016 -5.74945,7.91016c-12.48496,0 -24.85462,1.27734 -35.65769,7.91015c-0.9145,0.5625 -6.6043,3.89453 -10.38955,5.37891c5.2564,0.1289 14.05155,1.33203 6.9383,3.66406c-6.25441,2.04688 -41.33954,1.05859 -42.5602,2.25781c-0.54473,0.53907 7.73749,2.875 5.75342,6.77735c-0.42146,0.82812 -15.1569,8.35547 -17.25628,9.04297c-4.66,1.52734 -9.74941,4.79296 -13.80503,6.78125c-0.29821,0.14843 -1.94034,1.48046 -1.1491,2.25781c0.27435,0.26953 1.52682,-0.07031 1.1491,0c-2.28627,0.44922 -4.68783,0.40625 -6.89854,1.13281c-1.31211,0.42969 -2.0954,1.99219 -3.45125,2.26172c-8.34982,1.63672 -16.89048,2.11719 -25.30392,3.38672c-2.27433,0.34375 -5.27628,-1.59766 -6.90251,0c-3.47511,3.41406 15.07341,8.92187 13.80106,10.17187c-0.4652,0.45703 -30.74323,3.10547 -32.20643,3.39063c-15.46306,3.03906 10.02376,4.11719 4.60035,6.78125c-9.0337,4.4375 -24.69159,2.23437 -33.35949,7.91015c-4.16696,2.73047 3.14111,4.00391 2.30215,5.64844c-1.4473,2.84766 -6.87467,1.10547 -9.2007,3.39063c-0.57653,0.5625 0.57654,2.82422 0,3.38672c-1.38766,1.36718 -37.80876,2.1914 -44.86237,5.65625c-1.93636,0.95312 -7.72556,-1.44922 -9.2007,0c-1.02186,1 6.90251,0.70703 6.90251,2.25781c0,2.57812 -5.95223,2.70312 -8.05161,3.39062c-7.13709,2.33594 2.50098,3.39063 0,3.39063c-5.92439,0 -9.64999,3.91406 -14.95411,5.64844c-1.45526,0.47656 -5.97211,-0.67579 -4.60035,0c2.2942,1.1289 7.7017,1.82031 5.74944,5.65234c-0.77931,1.53516 -8.4691,5.03516 -10.34979,5.64844c-0.32605,0.10547 -2.30216,1.30859 -2.30216,1.1289c0,-0.1914 9.53072,4.51953 9.2007,4.51953c-1.76539,0 -32.20643,3.89454 -32.20643,6.78125c0,0.88672 13.93624,5.52344 12.65196,6.78125c-4.48504,4.41016 -0.6163,-0.26171 -3.45125,1.12891c-6.03971,2.96875 -1.17296,2.28125 -4.59638,4.52344c-2.27433,1.48828 -2.81906,0.2539 -4.60433,1.1289c-0.48508,0.23829 -0.76738,0.75391 -1.14909,1.12891c-2.30216,1.13281 -4.48504,2.52734 -6.90251,3.39063c-7.66991,2.73828 -18.78311,2.63281 -24.15482,7.91015c-1.12524,1.10547 -4.20671,0.875 -7.43133,0.48047l0,483.125l3794.7723,0l0,-442.78125c-5.06953,-1.91016 -9.95616,-3.88281 -15.04557,-5.78906c-9.70965,-9.75 -18.64793,-21.24219 -30.12693,-28.01172c-12.16687,-7.17188 -14.81098,-0.70703 -26.45699,-4.51953c-6.91046,-2.26563 -7.36772,-6.02344 -12.65195,-10.17188c-4.17094,-3.27734 0.26639,4.86719 -5.74945,3.39063c-8.14306,-2 -8.60031,-7.05078 -14.95413,-10.17188c-3.5109,-1.72265 -11.22851,0.08985 -14.95411,-1.1289c-5.4751,-1.79297 -5.64607,-3.59375 -10.3498,-4.51953c-1.37574,-0.27344 -4.43734,0.64453 -5.74945,0c-2.53676,-1.24219 -5.02977,-2.79688 -8.05161,-3.39063c-4.39757,-0.86719 -4.50889,1.54688 -10.35377,-1.13281c-8.74346,-4.00781 -12.84679,-11.1836 -20.70357,-15.81641c-2.11528,-1.25 0.12327,2.65625 -2.30215,2.25781c-5.62619,-0.92187 -10.63608,-3.17578 -16.09924,-4.51953c-1.84491,-0.45312 -3.90056,0.54688 -5.75342,0c-4.3777,-1.28906 -12.74342,-7.91015 -17.25231,-7.91015c-0.85487,0 1.3638,4.30859 1.14909,4.51953c-2.31806,2.27734 -6.13512,-2.25781 -9.2007,-3.39063c-5.00988,-1.83984 -9.89254,-3.98828 -14.96207,-5.64843c-2.43337,-0.80079 6.0238,6.77734 3.45921,6.77734c-3.09341,0 -5.29219,-3.16016 -8.05161,-4.51563c-6.98998,-3.4375 -13.42332,-7.30859 -20.71151,-10.17187c-1.46719,-0.57813 -5.30412,-2.51953 -4.60035,-1.12891c0.00795,0.00782 6.13512,8.39453 2.29818,6.77735c-17.8527,-7.51563 -28.93808,-18.11328 -44.42897,-30.51172c-6.79118,-5.4375 -12.60424,-15.03906 -21.36758,-15.03906c-1.08945,0 1.70178,1.375 2.30216,2.26171c0.60835,0.90235 7.06156,13.39844 5.74945,14.69141c-1.43538,1.40625 -10.21858,-6.04687 -10.3498,-5.64844c-0.48111,1.41407 -0.23459,2.94141 -0.09145,4.45703c-0.97812,-0.91015 -2.27036,-1.43359 -3.35981,-2.19921c-1.16103,-0.81641 -3.57452,-2.45313 -4.58047,-3.51954c0,0.03907 -0.01989,0.09375 -0.01989,0.125c0,2.26172 0.71968,4.64063 0,6.78125c-0.8151,2.39844 -4.56058,-2.36328 -6.90251,-3.39062c-3.47908,-1.51563 -10.94223,-3.03516 -14.96206,-4.51953c-3.88864,-1.4336 -6.86276,-2.33203 -6.90251,-2.25781c-0.54075,1.0664 -0.21471,4.15234 -1.1491,3.38671c-7.60231,-6.22656 -12.46111,-9.35156 -21.85266,-12.42968c-2.26241,-0.74219 -1.25247,3.78906 -1.20476,5.54297c-0.6004,-1.1875 -1.15705,-2.50391 -2.24651,-3.28125c-6.79913,-4.85547 -17.38749,-10.44922 -25.30391,-13.5586c-1.78129,-0.70312 0.85486,3.96485 0,5.64844c-1.8131,3.55859 -6.71961,2.19922 -9.20468,1.12891c-8.62019,-3.70313 -30.8625,-22.60157 -34.50462,-22.60157c-0.20278,0 0.27435,4.39063 0,4.52344c-2.49302,1.22266 -5.37569,-1.47266 -8.0516,-2.26172c-9.72953,-2.86719 -7.71761,1.12891 -8.05161,1.12891c-5.10134,0 -14.21854,-7.29297 -19.55447,-9.03906c-2.82701,-0.92579 0.36581,3.57031 -2.29818,2.26171c-8.20668,-4.03125 -15.1569,-7.96093 -24.15482,-10.17187c-4.04369,-0.99219 1.35188,5.99609 -1.14909,4.51953c-5.25244,-3.09375 -9.89652,-5.55859 -16.10322,-6.78125c-6.97408,-1.36719 3.47909,4.69922 -10.35377,-1.12891c-2.85882,-1.19921 -11.70565,-7.71484 -13.80106,-5.65234c-1.82502,1.78906 -4.52082,-2.44922 -6.91443,-3.39062c-3.71368,-1.45704 -7.69376,-2.14454 -11.49094,-3.38672c-3.08148,-1.00782 -4.91446,-1.84375 -5.95222,-2.4336c0.19085,1.4375 -0.95824,4.19532 -0.95824,5.82032c0,1.50781 1.08945,3.45703 0,4.52343c-1.07752,1.06641 -3.1769,0.5586 -4.60035,0c-2.56458,-1.00781 -4.58047,-3.03906 -6.90251,-4.52343c-16.25431,-10.40235 -35.08513,-23.92188 -52.75493,-32.60157c-5.59835,-2.7539 1.76937,5.64844 -2.30215,5.64844c-2.95027,0 -18.04753,-3.56641 -20.70357,-2.26172c-0.77136,0.37891 1.74949,1.66406 1.1491,2.26172c-0.00795,0.01172 -6.67588,-4.41016 -9.2007,-5.64844c-2.56459,-1.25781 -0.45725,2.71094 -1.1491,3.38672c-2.45326,2.41406 -7.03373,-0.14844 -10.35378,-1.1289c-2.87869,-0.84766 -15.47897,-6.88282 -20.70356,-7.91016c-4.36576,-0.85938 -9.54663,1.19531 -13.81298,0c-21.9958,-6.17578 -29.90427,-8.55859 -32.26607,-9.46875c0.01988,0.53125 -0.09941,0.91016 -1.08945,0.42969c-9.00588,-4.42578 -28.78301,-18.4375 -37.91611,-18.4375c-0.82306,0 5.9562,11.10156 4.60035,12.42968c-0.53678,0.53125 -1.55466,0.1836 -2.29818,0c-3.88068,-0.95312 -7.66593,-2.28125 -11.50287,-3.39062c-2.67591,-0.77344 -5.32399,-1.66406 -8.0516,-2.25781c-4.61228,-1.00782 -0.62028,1.96093 -3.45126,1.1289c-5.80113,-1.71093 -11.41937,-4.01562 -17.25231,-5.65234c-2.08745,-0.58203 -2.49301,1.80078 -3.45125,1.12891c-8.34584,-5.85547 -15.87658,-9.58985 -25.30392,-13.5586c-3.98007,-1.67187 3.63417,7.14063 4.60036,9.03906c0.17494,0.33985 -0.77137,0.07422 -1.1491,0c-3.10533,-0.60937 -6.10729,-1.64843 -9.2007,-2.25781c-2.33397,-0.45703 -0.05169,-0.96875 -3.45126,-2.26172c-5.34388,-2.02734 -10.86271,-3.60547 -16.11514,-5.85547c-4.74349,-2.03906 -9.06949,-4.9375 -13.81298,-6.99218c-5.55461,-2.41407 3.5944,7.17578 0,6.78125c-15.2245,-1.66016 -27.59416,-9.23828 -41.02941,-15.83594c-2.95026,-1.45313 1.56659,7.58984 -3.45125,5.64844c-5.92439,-2.29297 -11.63408,-5.08985 -17.45509,-7.63672c-6.15898,-2.45703 -12.26627,-5.03906 -18.48489,-7.3711c-2.86279,-1.07421 0.60834,3.21485 -2.30216,2.26172c-9.69772,-3.17578 -1.6978,-1.85156 -12.65196,-3.39062c-2.21867,-0.3125 -2.20674,1.65234 -3.45126,1.1289c-2.29024,-0.96484 -10.20665,-6.28125 -13.80105,-4.51953c-2.12721,1.04688 1.23259,2.5 -5.74945,1.13282c-8.27824,-1.62891 -17.42725,-4.35938 -25.30789,-5.65235c-7.56255,-1.23828 -25.28403,-7.93359 -26.45301,-6.78125c-0.10338,0.10156 1.5467,5.72656 1.1491,5.65235c-21.74928,-4.27344 -41.80475,-15.10157 -62.87411,-21.77344c-3.1451,-0.99219 3.00195,5.65234 -1.16103,5.65234c-4.6918,0 -14.45313,-1.9375 -18.4014,0c-3.28824,1.61719 4.37769,1.94141 -8.05161,1.12891c-17.17278,-1.125 -43.53434,-12.34375 -57.51035,-19.21094c-1.02981,-0.50391 10.69571,10.30469 6.90251,9.03906c-5.99597,-2 -47.67744,-20.67968 -57.52228,-20.67968c-1.91251,0 4.80313,3.1875 3.45126,4.51953c-2.75942,2.71484 -7.72557,-1.26953 -11.50287,-2.26172c-9.41541,-2.46485 -5.08941,-2.25781 -10.34979,-2.25781c-3.08546,0 1.17693,3.77734 -3.45126,2.25781c-5.20074,-1.70313 -28.45298,-13.5586 -32.20642,-13.5586c-0.87475,0 5.74944,8.25782 5.74944,9.03907c0,1.96093 -24.50869,-2.25782 -29.90426,-2.25782c-8.59236,0 -20.8149,-5.83203 -28.75517,-7.91406c-0.01193,-0.0039 -0.03977,-0.0039 -0.05169,-0.00781c3.64608,2.78516 8.10329,8.94531 4.65204,7.91797c-18.02765,-5.3711 -35.77697,-11.63672 -53.78474,-17.07031c-3.98802,-1.20313 -8.0516,-2.21094 -12.12313,-3.08204c-0.75148,-0.16015 -1.76141,-0.53125 -2.29818,0c-1.20477,1.17969 4.64011,1.08204 3.44727,2.26172c-0.81112,0.79688 -2.31806,0.1836 -3.44727,0c-5.79319,-0.94922 -11.5466,-2.11328 -17.26424,-3.39062c-0.54075,-0.1211 -9.2007,-2.95703 -9.2007,-2.26172c0,1.03125 12.23447,9.99219 11.51081,10.17187c-10.92235,2.67969 -22.38546,-7.91015 -33.36745,-7.91015c-0.37773,0 -1.1491,-0.375 -1.1491,0c0,0.48828 6.31008,3.68359 4.60035,4.51953c-5.46714,2.6875 -46.00747,-9.82422 -46.00747,-13.5625c-2.93039,1.52344 8.36572,9.87109 5.94427,12.25c-1.14114,1.125 -14.57639,-6.87109 -24.15482,-11.30078c-11.11718,-5.14063 -3.20474,0.46094 -13.80105,-1.12891c-11.52275,-1.73047 -22.91428,-4.27734 -34.4251,-6.03125c-27.1687,-4.13281 -8.35776,2.76563 -36.89027,-8.44531c-2.85086,-1.12109 4.09141,4.51953 -1.13717,4.51953l-14.96605,0c-9.91242,0 -15.03364,2.23047 -25.30391,-1.12891c-1.85286,-0.60937 -6.62418,-2.84765 -5.74945,-1.1289c0.7316,1.42578 4.60035,2.25781 3.45126,3.38672c-1.57851,1.55078 -21.31589,-7.41407 -28.19852,-8.61719c2.31409,1.36719 11.24839,8.31641 9.79315,9.74609c-1.29224,1.26953 -18.66781,-2.8164 -20.70357,-3.38672c-5.48702,-1.54296 -12.14302,-1.23828 -18.4014,-2.26171c-3.69778,-0.60547 -7.62617,-0.62891 -11.01381,-2.12891c-0.05169,0.46094 -0.16301,0.94531 -0.48905,1c-5.66993,0.92969 -11.56251,0.79687 -17.25231,0c-8.87864,-1.24609 -18.66781,-7.47266 -26.45699,-11.30078c-2.25048,-1.10547 -0.58847,1.70312 -1.1491,2.26172c-1.6302,1.59765 -4.63216,0.33984 -6.90251,0c-22.21846,-3.35938 -3.07353,-0.63282 -11.50286,-3.39063c-2.40952,-0.78906 0.19483,2.25781 -2.29818,2.25781c-3.23655,0 -9.84483,-1.3789 -12.65196,0c-0.10338,0.04688 -0.16301,4.29297 0,4.4961c-6.01584,-0.00391 -19.72544,-0.0586 -24.16675,-2.23438c-3.6421,-1.79687 -26.41324,-7.94922 -28.75517,-5.65234c-1.32006,1.30469 7.98004,10.72266 4.60036,10.17187c-10.27028,-1.68359 -1.6978,-0.24609 -13.80106,-5.64843c-5.63811,-2.51953 -6.12717,0.41797 -8.0516,0c-6.99397,-1.53125 -13.96407,-3.44922 -20.70357,-5.65235c-2.87074,-0.9414 0.63221,2.98047 -2.29818,2.26172c-11.48298,-2.82031 -22.54847,-7.91015 -34.50859,-7.91015c-9.59831,-1.52735 4.96615,8.67578 2.30215,11.30078c-0.8151,0.79687 -2.30215,0 -3.45125,0c-3.9602,0 -27.29992,-0.30078 -27.60608,0c-1.37176,1.34765 3.12521,2.19531 -2.29819,1.1289c-3.98007,-0.78515 -10.07942,-4.59765 -12.65195,-5.65234c-3.48307,-1.42188 -7.86871,-3.32813 -11.50287,-4.51953c-3.12521,-1.02344 2.15505,2.26172 -1.15307,2.26172l-14.95015,0c-0.77534,0 -2.30216,-0.75391 -2.30216,0c0,1.37109 2.69978,2.89062 -1.14909,2.25781c-5.23256,-0.85547 -8.8349,-2.16797 -13.80106,-3.39063c-3.02581,-0.74218 -7.5029,0.40235 -10.35377,0c-3.5944,-0.5039 -7.73749,-1.64062 -11.51082,-2.25781c-3.90056,-0.64062 -1.98407,0.82031 -3.4433,2.25781c-0.80317,0.78907 -10.50088,0.09766 -11.51081,0c-1.16898,-0.11328 -11.85674,-3.03125 -12.65196,-2.25781c-1.16898,1.15235 1.27235,2.20313 -1.1491,3.39063c-6.1391,3.01562 -14.6082,0.86718 -20.70356,-1.13282c-3.06558,-1.0039 0.38569,0.62891 -1.15307,1.13282c-2.54471,0.83203 -5.44329,0.63672 -8.05161,0c-2.66399,-0.65625 -23.47093,-8.58203 -24.15084,-7.91016zm399.6301,22.73047c0.05965,-0.625 -0.05169,-1.26172 -0.48905,-1.26172c-0.38569,0 -0.34593,0.96094 0,1.12891c0.15108,0.07422 0.33399,0.0664 0.48905,0.13281zm40.32563,-1.96875c-0.0994,-0.05859 -0.47713,-0.38672 -0.55665,-0.42188c-0.33797,-0.16796 -1.53875,0 -1.15308,0c0.33798,0 1.24452,0.33985 1.70973,0.42188zm329.66264,40.03125c-1.43538,-1.09766 -2.74749,-1.76172 -3.39957,-1.12109c-0.85486,0.83203 2.19879,0.82421 3.39957,1.12109zm-1504.44982,-0.73828c-0.33399,-0.07813 -0.62027,-0.03516 -0.831,0.17578c-0.08748,0.08594 1.52284,0.24609 1.94431,0.35547c-0.40159,-0.26172 -0.78329,-0.45703 -1.11331,-0.53125zm2125.13532,122.28125c-1.46719,-0.48438 -1.32405,0.48437 -1.21272,1.35547c3.7773,0.55078 12.91836,2.47656 1.21272,-1.35547zm-1.21272,1.35547c-1.3638,-0.19922 -1.32404,-0.03516 0,0.47656c0,-0.16406 0.03181,-0.28906 0,-0.47656zm-2626.19977,16.15234c-0.76341,0.05078 -1.21668,0.20703 -1.21668,0.51172c0,0.53906 2.04769,0.16406 4.27828,-0.39453c-1.23259,-0.11328 -2.30216,-0.16797 -3.0616,-0.11719zm2799.80037,25.26563c-0.29423,0 -0.09145,0.35546 0.95824,0.95703c-0.07158,-0.5586 -0.30616,-0.95703 -0.95824,-0.95703zm-2896.52304,16.78515c-1.92841,-0.04687 -3.41547,0.02344 -3.41547,0.27344c0,0.86719 1.5308,0.46094 3.41547,-0.27344zm3149.57811,54.41016c-0.74353,0 -0.48906,0.44531 0.03181,1c0.05169,-0.39453 0.32604,-1 -0.03181,-1" fill="rgb(44.309998%, 78.514099%, 21.556091%)" fill-rule="nonzero"/>
 </g>
</svg>