<svg width="1024" height="380" xmlns="http://www.w3.org/2000/svg" fill="#000000" xml:space="preserve" version="1.1">

 <g>
  <title>Layer 1</title>
  <g stroke-width="0" id="SVGRepo_bgCarrier"/>
  <g stroke-linejoin="round" stroke-linecap="round" id="SVGRepo_tracerCarrier"/>
  <polygon id="svg_1" fill="#55B9D3" points="278.239013671875,350.3370056152344 112.5270004272461,102.68099975585938 0,270.85400390625 0,384 "/>
  <polygon id="svg_2" fill="#4393A8" points="399.4729919433594,102.68099975585938 248.40899658203125,328.44500732421875 512,384 512,270.85400390625 "/>
  <polygon id="svg_3" fill="#59473C" points="413.67401123046875,237.06201171875 512,384 455.7359924316406,384 244.67999267578125,186.51400756835938 413.5379943847656,237.15200805664062 "/>
  <polygon id="svg_4" fill="#875B51" points="390.89801025390625,259.7919921875 455.7359924316406,384 0,384 98.3270034790039,237.06201171875 98.46199798583984,237.15200805664062 244.67999267578125,186.51400756835938 "/>
  <polygon id="svg_5" fill="#8CE6FE" points="256,1.4069976806640625 413.67401123046875,237.06201171875 413.5379943847656,237.15200805664062 390.89801025390625,259.7919921875 256,170.197998046875 "/>
  <polygon id="svg_6" fill="#D9F7FF" points="390.89801025390625,259.7919921875 374.15399169921875,276.5360107421875 334.7690124511719,237.15200805664062 295.385009765625,276.5360107421875 256,237.15200805664062 216.61500549316406,276.5360107421875 177.2310028076172,237.15200805664062 137.8459930419922,276.5360107421875 98.46199798583984,237.15200805664062 98.3270034790039,237.06201171875 256,1.4069976806640625 "/>
  <g id="svg_13">
   <path id="svg_14" fill="#59473C" d="m104.088,352.492c-4.661,0 -8.44,-3.779 -8.44,-8.44l0,-11.252c0,-4.661 3.779,-8.44 8.44,-8.44c4.661,0 8.44,3.779 8.44,8.44l0,11.253c-0.001,4.661 -3.779,8.439 -8.44,8.439z"/>
   <path id="svg_15" fill="#59473C" d="m407.912,352.492c-4.662,0 -8.44,-3.779 -8.44,-8.44l0,-11.252c0,-4.661 3.778,-8.44 8.44,-8.44s8.44,3.779 8.44,8.44l0,11.253c0,4.661 -3.778,8.439 -8.44,8.439z"/>
   <path id="svg_16" fill="#59473C" d="m177.231,329.987c-4.661,0 -8.44,-3.779 -8.44,-8.44l0,-11.253c0,-4.661 3.779,-8.44 8.44,-8.44s8.44,3.779 8.44,8.44l0,11.253c-0.001,4.661 -3.779,8.44 -8.44,8.44z"/>
  </g>
  <polygon id="svg_17" fill="#55B9D3" points="790.239013671875,350.3370056152344 624.5269775390625,102.68099975585938 512,270.85400390625 512,384 "/>
  <polygon id="svg_18" fill="#4393A8" points="911.4730224609375,102.68099975585938 760.4089965820312,328.44500732421875 1024,384 1024,270.85400390625 "/>
  <polygon id="svg_19" fill="#59473C" points="925.6740112304688,237.06201171875 1024,384 967.7360229492188,384 756.6799926757812,186.51400756835938 925.5379638671875,237.15200805664062 "/>
  <polygon id="svg_20" fill="#875B51" points="902.8980102539062,259.7919921875 967.7360229492188,384 512,384 610.3270263671875,237.06201171875 610.4619750976562,237.15200805664062 756.6799926757812,186.51400756835938 "/>
  <polygon id="svg_21" fill="#8CE6FE" points="768,1.4069976806640625 925.6740112304688,237.06201171875 925.5379638671875,237.15200805664062 902.8980102539062,259.7919921875 768,170.197998046875 "/>
  <polygon id="svg_22" fill="#D9F7FF" points="902.8980102539062,259.7919921875 886.1539916992188,276.5360107421875 846.76904296875,237.15200805664062 807.385009765625,276.5360107421875 768,237.15200805664062 728.614990234375,276.5360107421875 689.2310180664062,237.15200805664062 649.8460083007812,276.5360107421875 610.4619750976562,237.15200805664062 610.3270263671875,237.06201171875 768,1.4069976806640625 "/>
  <g id="svg_26">
   <path id="svg_23" fill="#59473C" d="m616.088,352.492c-4.661,0 -8.44,-3.779 -8.44,-8.44l0,-11.252c0,-4.661 3.779,-8.44 8.44,-8.44c4.661,0 8.44,3.779 8.44,8.44l0,11.253c-0.001,4.661 -3.779,8.439 -8.44,8.439z"/>
   <path id="svg_24" fill="#59473C" d="m919.912,352.492c-4.662,0 -8.44,-3.779 -8.44,-8.44l0,-11.252c0,-4.661 3.778,-8.44 8.44,-8.44s8.44,3.779 8.44,8.44l0,11.253c0,4.661 -3.778,8.439 -8.44,8.439z"/>
   <path id="svg_25" fill="#59473C" d="m689.231,329.987c-4.661,0 -8.44,-3.779 -8.44,-8.44l0,-11.253c0,-4.661 3.779,-8.44 8.44,-8.44s8.44,3.779 8.44,8.44l0,11.253c-0.001,4.661 -3.779,8.44 -8.44,8.44z"/>
  </g>
 </g>
</svg>