<svg width="572" height="925.0000000000001" xmlns="http://www.w3.org/2000/svg" version="1.1" class="icon">

 <g>
  <title _mstHash="495" _mstTextHash="48906">Capa 1</title>
  <path id="svg_1" fill="#1ca538" d="m82.38228,361.07278c-32.48339,-19.33534 -64.96677,0 -78.1148,29.38973c-13.14804,38.6707 6.18731,78.1148 29.38972,107.50453c42.53777,58.77946 113.69185,68.06043 185.61934,78.11481l19.33535,-13.14804c-16.2417,-71.15408 0,-156.22961 -22.42901,-224.29003c-32.48338,-84.30212 -150.04229,-71.92749 -133.8006,22.429zm374.33233,-62.64652c21.65558,-16.2417 39.4441,-32.48339 47.95166,-47.95166c55.6858,-92.80967 -40.21753,-238.21148 -123.74623,-129.93354c34.80363,-105.18429 -95.12991,-167.0574 -160.09667,-77.34139c-47.95167,68.83384 -44.85801,147.72205 -13.92145,218.87613c12.37462,37.89728 34.80362,73.47432 61.87311,103.63747l27.06948,101.31722c-0.77341,-3.09366 -0.77341,-6.18731 -0.77341,-10.05438l3.09366,12.37462c-5.4139,-25.52266 8.50755,-50.27191 31.70997,-74.24774c37.12386,-34.03021 93.58308,-66.51359 126.83987,-96.67673l0.00001,0zm-116.7855,429.24471c-3.09366,7.73414 -5.4139,16.24169 -6.18731,26.29607l6.18731,-26.29607zm136.12084,-191.80665c27.8429,-49.49849 -18.56193,-121.42598 -76.56797,-86.62235c-47.95166,34.80362 -44.85801,131.48036 -37.89728,183.29909l-21.65559,95.12991c2.32024,-4.64048 4.64048,-9.28097 8.50755,-13.14804c-1.54683,5.4139 -3.09366,10.8278 -3.09366,17.01511l3.86707,-18.56194c36.35046,-40.99093 126.83988,-34.80362 170.92448,-60.32628c116.01208,-58.77946 10.82779,-184.07251 -44.0846,-116.7855z"/>
  <path id="svg_2" fill="#65320b" d="m204.58167,924.89151c46.40484,-71.15408 73.47433,-128.3867 46.40484,-210.36858c-27.8429,-78.88822 -57.23263,-157.77643 -85.07553,-236.66465c16.24169,51.81873 62.64653,114.46526 101.31722,153.13595c19.33535,-54.91239 3.09366,-142.30816 10.8278,-201.86103c10.82779,-73.47431 32.48338,-147.72205 78.88821,-204.95468c-98.22356,152.36254 24.74925,313.23263 -27.06948,471.78248c30.16314,-5.4139 60.32628,-30.16314 78.88821,-54.91239c0,62.64653 -49.49849,98.22357 -60.32628,155.4562c-10.8278,37.89728 3.09365,92.80966 10.82779,130.70694l-154.68278,-2.32024z"/>
 </g>
</svg>